<?xml version="1.0" encoding="utf-8"?>
<!-- Generator: Adobe Illustrator 27.2.0, SVG Export Plug-In . SVG Version: 6.00 Build 0)  -->
<svg version="1.1" id="Layer_1" xmlns="http://www.w3.org/2000/svg" xmlns:xlink="http://www.w3.org/1999/xlink" x="0px" y="0px"
	 viewBox="0 0 150 26" style="enable-background:new 0 0 150 26;" xml:space="preserve">
<style type="text/css">
	.st0{fill:#EC2027;}
</style>
<path class="st0" d="M18.1,20.5c-0.2-0.3-0.3-0.4-0.6-0.6c-0.3-0.2-0.6-0.3-1-0.3s-0.7,0.1-1.1,0.3c-0.3,0.1-0.6,0.3-1.1,0.4
	c-0.4,0.2-0.9,0.4-1.3,0.5c-0.5,0.1-1.1,0.2-1.9,0.2c-1,0-1.8-0.2-2.6-0.6c-0.8-0.4-1.4-0.9-1.9-1.6c-0.5-0.6-0.9-1.4-1.1-2.3
	c-0.3-0.9-0.4-1.8-0.4-2.7c0-1.1,0.2-2,0.4-2.9C5.8,10,6.1,9.2,6.6,8.5c0.6-0.6,1.2-1.2,2-1.6c0.7-0.4,1.7-0.6,2.6-0.6
	c0.7,0,1.3,0.1,1.8,0.2c0.5,0.1,1,0.3,1.3,0.3C14.6,7,15,7.2,15.4,7.2c0.3,0.1,0.6,0.2,0.9,0.2c0.6,0,1.1-0.2,1.5-0.6
	c0.3-0.4,0.5-1,0.5-1.6c0-0.7-0.2-1.3-0.7-1.8s-1.1-0.9-1.9-1.1C15,2,14.2,1.8,13.4,1.7c-0.8-0.1-1.5-0.2-2.1-0.2
	c-1.7,0-3.2,0.3-4.6,1C5.3,3.1,4.1,4,3.2,5.1C2.1,6.2,1.4,7.5,0.8,8.9c-0.5,1.4-0.8,3-0.8,4.8c0,1.7,0.3,3.3,0.8,4.8
	c0.6,1.4,1.3,2.7,2.4,3.8c1,1.1,2.1,1.9,3.5,2.6c1.4,0.6,2.9,1,4.6,1c0.6,0,1.4-0.1,2.2-0.2c0.9-0.1,1.7-0.4,2.4-0.6
	c0.8-0.3,1.5-0.7,2-1.1c0.5-0.5,0.8-1.1,0.8-1.9c0-0.2,0-0.4-0.1-0.7C18.5,20.9,18.3,20.7,18.1,20.5z"/>
<path class="st0" d="M35.8,10.3c-0.8-0.9-1.7-1.5-2.7-2c-1.1-0.5-2.2-0.8-3.4-0.8s-2.4,0.3-3.4,0.8c-1.1,0.5-1.9,1.1-2.6,2
	c-0.8,0.8-1.3,1.9-1.8,2.9c-0.4,1.1-0.6,2.3-0.6,3.4c0,1.2,0.2,2.5,0.6,3.5c0.3,1.1,1,2.1,1.8,2.9c0.7,0.9,1.6,1.5,2.6,2
	c1.1,0.4,2.2,0.7,3.4,0.7c1.3,0,2.5-0.3,3.5-0.7c1-0.5,1.9-1.1,2.6-2c0.7-0.8,1.3-1.8,1.8-2.9c0.4-1.1,0.6-2.3,0.6-3.5
	c0-1.1-0.3-2.3-0.7-3.4C37.1,12.1,36.5,11.1,35.8,10.3z M33.2,18.4c-0.2,0.5-0.4,1-0.7,1.5c-0.3,0.4-0.7,0.8-1.1,1.1
	c-0.4,0.3-1.1,0.4-1.7,0.4c-0.6,0-1.1-0.2-1.7-0.4c-0.4-0.4-0.8-0.7-1.1-1.1c-0.3-0.4-0.5-1-0.7-1.5C26,17.7,26,17.2,26,16.6
	c0-0.5,0.1-1.1,0.2-1.7c0.2-0.5,0.4-1.1,0.7-1.5c0.3-0.5,0.7-0.9,1.1-1.1c0.4-0.3,1.1-0.4,1.7-0.4c0.7,0,1.2,0.1,1.7,0.4
	s0.9,0.6,1.2,1.1c0.3,0.4,0.5,1,0.6,1.5c0.2,0.6,0.3,1.1,0.3,1.7C33.4,17.2,33.4,17.7,33.2,18.4z"/>
<path class="st0" d="M55.7,21.9l-5.5-6.4l4.1-3.8c0.4-0.3,0.6-0.6,0.8-0.9c0.1-0.3,0.2-0.6,0.2-1c0-0.5-0.2-1.1-0.5-1.5
	c-0.4-0.4-0.9-0.6-1.5-0.6c-0.3,0-0.6,0.1-1,0.2c-0.4,0.2-0.8,0.4-1.1,0.8l-5.2,5v-11c0-0.8-0.3-1.4-0.7-1.9c-0.3-0.4-1-0.7-1.7-0.7
	c-0.7,0-1.2,0.3-1.7,0.7c-0.4,0.5-0.7,1.1-0.7,1.9v20.2c0,0.8,0.3,1.4,0.7,1.8c0.4,0.5,1,0.8,1.7,0.8c0.7,0,1.3-0.3,1.7-0.8
	c0.4-0.4,0.7-1.1,0.7-1.8v-5.8l5.7,7.1c0.4,0.5,0.8,0.9,1.1,1.1c0.3,0.3,0.7,0.4,1.1,0.4c0.6,0,1.1-0.3,1.6-0.6
	c0.4-0.4,0.6-1,0.6-1.7c0-0.3,0-0.5-0.1-0.8C56,22.4,55.8,22.1,55.7,21.9z"/>
<path class="st0" d="M74.1,17.7c0.4-0.3,0.5-0.9,0.5-1.6c0-1-0.2-1.9-0.6-3c-0.4-1.1-1-1.9-1.7-2.8c-0.8-0.8-1.7-1.5-2.7-2
	c-1.1-0.5-2.2-0.8-3.5-0.8c-1.2,0-2.4,0.3-3.4,0.8s-1.9,1.1-2.6,2c-0.7,0.8-1.3,1.9-1.8,2.9c-0.4,1.1-0.6,2.3-0.6,3.4
	c0,1.3,0.3,2.6,0.6,3.7c0.4,1.1,1.1,2,1.8,2.8c0.8,0.8,1.7,1.5,2.8,1.9c1.1,0.4,2.3,0.7,3.6,0.7c0.9,0,1.8-0.2,2.6-0.4
	c1-0.3,1.8-0.5,2.5-0.9c0.7-0.4,1.3-0.8,1.9-1.3c0.4-0.4,0.7-1,0.7-1.5c0-0.4-0.3-1-0.6-1.4c-0.4-0.3-0.9-0.6-1.3-0.6
	c-0.4,0-0.7,0.1-1.1,0.3c-0.3,0.2-0.8,0.4-1.2,0.6c-0.4,0.3-0.9,0.4-1.4,0.6c-0.5,0.3-1.1,0.4-1.7,0.4c-1.1,0-2.1-0.3-3-0.9
	c-0.8-0.5-1.3-1.4-1.5-2.6h10C73.3,18.2,73.9,18,74.1,17.7z M62.4,15c0.1-1,0.4-1.8,1.1-2.6c0.7-0.7,1.5-1.1,2.6-1.1
	c1.1,0,2,0.4,2.6,1.1c0.6,0.6,1.1,1.5,1.1,2.6H62.4z"/>
<path class="st0" d="M92.4,3.9c-0.8-0.7-1.7-1.2-2.8-1.6c-1-0.4-2.1-0.6-3.4-0.6h-5.9c-0.8,0-1.4,0.3-2,0.7c-0.4,0.5-0.6,1.2-0.6,2
	v18.7c0,0.9,0.3,1.5,0.7,2c0.4,0.4,1.1,0.6,1.8,0.6s1.3-0.2,1.8-0.6c0.4-0.4,0.7-1.1,0.7-2v-5.5h3.7c1.2,0,2.2-0.2,3.3-0.5
	c1-0.4,1.9-0.9,2.6-1.6c0.8-0.6,1.4-1.5,1.8-2.4c0.5-1,0.7-2.1,0.7-3.3c0-1.3-0.2-2.3-0.6-3.3C93.8,5.4,93.1,4.6,92.4,3.9z
	 M88.8,12.1c-0.6,0.7-1.5,1.1-2.6,1.1h-3.4V6.1h3.4c1.1,0,2,0.3,2.6,1c0.5,0.7,0.9,1.5,0.9,2.5S89.3,11.4,88.8,12.1z"/>
<path class="st0" d="M110.2,21.7c-0.2-0.2-0.4-0.4-0.8-0.5c-0.3-0.2-0.6-0.3-1.1-0.3h-5.9V4.2c0-0.8-0.3-1.4-0.7-1.9
	c-0.5-0.4-1.1-0.7-1.8-0.7c-0.7,0-1.3,0.3-1.8,0.7s-0.7,1.1-0.7,1.9v18.6c0,0.9,0.2,1.5,0.6,2.1c0.4,0.4,1.2,0.7,2,0.7h8.3
	c0.7,0,1.3-0.3,1.7-0.7c0.4-0.4,0.6-1,0.7-1.5c0-0.3-0.1-0.5-0.2-0.8S110.3,22,110.2,21.7z"/>
<path class="st0" d="M127.1,4.2c-0.3-0.8-0.7-1.5-1.3-2c-0.5-0.5-1.3-0.8-2.2-0.8c-0.8,0-1.5,0.3-2.1,0.8s-1.1,1.2-1.4,2l-6.6,18.1
	c-0.1,0.1-0.2,0.2-0.2,0.4c-0.1,0.2-0.1,0.4-0.1,0.7c0,0.6,0.3,1.3,0.7,1.7c0.4,0.4,1.1,0.6,1.7,0.6c0.7,0,1.3-0.2,1.6-0.5
	c0.4-0.3,0.6-0.7,0.8-1.3l1-3h9.3l1,3.1c0.2,0.5,0.4,0.9,0.8,1.3c0.4,0.3,1,0.4,1.7,0.4c0.6,0,1.2-0.2,1.6-0.6
	c0.4-0.4,0.6-0.9,0.6-1.6v-0.4c-0.1-0.3-0.1-0.4-0.3-0.7L127.1,4.2z M120.3,16.3l3.2-9.7h0.1l3,9.7H120.3z"/>
<path class="st0" d="M149.4,2.2c-0.5-0.4-1.1-0.7-1.8-0.7c-0.9,0-1.5,0.4-2.1,1.1l-4.7,6.9L136,2.6c-0.4-0.7-1.2-1.1-2.1-1.1
	c-0.7,0-1.3,0.3-1.7,0.7c-0.5,0.5-0.7,1.1-0.7,1.8c0,0.5,0.2,1,0.4,1.4l6.3,8.9v8.9c0,0.6,0.2,1.2,0.5,1.7c0.4,0.5,1.1,0.7,2,0.7
	c0.9,0,1.5-0.2,1.9-0.7c0.4-0.5,0.6-1.1,0.6-1.7v-8.9l6.3-8.9C149.9,5,150,4.5,150,4C150,3.3,149.8,2.8,149.4,2.2z"/>
</svg>
