<?xml version="1.0" encoding="UTF-8"?>
<svg xmlns="http://www.w3.org/2000/svg" version="1.1" viewBox="0 0 125 20">
  <defs>
    <style>
      .cls-1 {
        fill-rule: evenodd;
      }

      .cls-1, .cls-2 {
        fill: #f20c0c;
      }
    </style>
  </defs>
  <!-- Generator: Adobe Illustrator 28.7.1, SVG Export Plug-In . SVG Version: 1.2.0 Build 142)  -->
  <g>
    <g id="_레이어_1" data-name="레이어_1">
      <path class="cls-1" d="M72.6,4.3h0c.5-.5,1-1.1,1.5-1.6-.7-.3-1.3-.7-1.9-1-1.3-.8-2.5-1.5-3.9-1.6-1.1,0-2.2.1-3.2.5,0,0-.5-.7-2.2-.5-1.7.2-6.8,2.4-11.2,9.4-4,6.3-2.1,10,.7,9.9,3.1,0,6-3.5,7-6.3,1-2.8-.2-3.6-1.1-3.5-1,0-2.8,1-3.7,2.9-1,2-1,3.2-1,3.2.4-.4.8-.8,1.3-1.1.4-.3.9-.6,1.4-.8.1-.5.3-1,.5-1.5.4-.7.9-1.5,1.6-1.7,1.4-.3.7,2.2-.3,3.9-.6.9-2.5,3.4-4.2,3.4s-2-1.6-1.6-3.1.8-3.4,3.3-6.9c2.5-3.5,5.1-5.6,6.6-6.4,1.6-.9,2.2-.5,2.2-.5,0,0-2,1.2-3.2,2.7-1.1,1.4-1.8,3-1.2,3.8.5.7,2.2.8,4.1-1.9,1.9-2.7,1.4-4.3,1.4-4.3.1,0,.2,0,.4,0,.9-.1,1.6.1,2.8.7.5.3,1.1.6,1.7,1,.7.4,1.4.9,2.2,1.3h0s0,0,0,0ZM65,1.5s-1.2.5-2.6,2c-1.4,1.5-2.2,3.3-1.6,3.7.2.2.8.2,1.7-.7.9-.8,1.6-1.7,2-2.8.6-1.4.4-2.1.4-2.2,0,0,0,0,0,0Z"/>
      <path class="cls-2" d="M75,5.2h0c3.3.6,6.1-1.4,7.6-3.1.6-.6,1-1.3,1.4-2-.7.7-1.5,1.4-2.3,1.9h0c-1.4.9-3.4,1.7-5.3,1.5-.5.5-1,1.1-1.5,1.7h0Z"/>
      <path class="cls-1" d="M76.2,16.8c-.3.4-.6,1.3.3.7,1.1-.6,2.6-3,2.6-3h.7c-.6,1-1.4,1.9-2.1,2.8-1.1,1.2-2.5,2.3-3.4,2.2-1.1-.1-.8-1.6-.8-1.6,0,0-1.6,1.7-2.7,1.6-1.5-.2-1-2-1-2,0,0-1.7,2.1-2.8,2-1.8-.1-1.3-2.3-.8-3.8.3-.8.5-1.5.5-1.5,0,0-.2,0-.6.1-.2,0-.6,0-.6,0-.4.7-.9,1.4-1.3,2.1-.6.8-3.1,3.5-4.6,3-1.4-.5-.9-2.6-.1-4.3,1.2-2.4,4.5-6,6.4-5.5,2,.5,0,4.1,0,4.1,0,0,0,0,0,0,.1,0,.3,0,.4,0,.2,0,.5-.1.7-.2,0,0,2-4.1,4.2-6.9,2.2-2.7,6.6-7.4,8.3-6.2.4.3.2,1.2-.3,2.4-.3,0-.5.1-.8.2.3-.5.5-1.1.7-1.7.3-1.4-3,1.6-5.4,4.7-1.4,1.9-2.7,3.9-3.7,6.1.4-.3.8-.5,1.2-.9,1-.9,2-1.8,3-2.8.9-.9,1.7-1.9,2.5-2.9.3,0,.5,0,.7,0-.9,1.2-1.8,2.3-2.8,3.3,0,0-.2.2-.2.2-.9.9-1.8,1.8-2.6,2.4-.8.7-1.6,1.3-2.5,1.8,0,0-2.1,4.1-.9,4.4.7.2,1.9-1.8,1.9-1.8,0,0,1.7-2.6,2.7-3.7,1.4-1.6,2.6-2.5,3.8-2.5.7,0,1.1.7,1.1.7l.3-.5h2s-3.8,6.4-4.1,6.9h0ZM77.4,11.1s0,0,0-.1c0,0,0-.1,0-.2,0,0-.1,0-.2,0-.3,0-.7,0-1.8,1.3-.9,1-1.7,2.1-2.4,3.4-.6,1.2-.9,2-.5,2.3.1,0,.3,0,.4,0,.2,0,.5-.3,1-.8.2-.2.3-.4.5-.7h0c0,0,0-.1.2-.2.7-1,2.6-4.2,3-4.8h0ZM65.9,12.5c.2-.5.4-1.4,0-1.8-.5-.4-1.9.5-1.9,1.5,0,1,.9,1.4,1.2,1.5.1,0,.2,0,.2,0,.2-.3.4-.7.5-1.1h0ZM64.8,14.2c-.3-.2-.6-.4-.9-.6-.3-.2-.5-.5-.7-.8,0,0,0,0,0,0,0,0,0,0,0,0h0s-.1.1-.8,1.2c-.7,1.1-1.8,3.2-.8,3.6.6.2,1.7-.9,2.3-1.6.4-.5.8-1.1,1.1-1.6,0,0,0,0,0,0Z"/>
      <path class="cls-2" d="M53.5,5.1h-1.9l-1.1,1.7h1.9l1.1-1.7Z"/>
      <path class="cls-1" d="M49,9.8h.7s-3.5,5.1-5.5,4.8c-1.1-.1-.8-1.5-.8-1.5,0,0-1.6,1.8-3,1.5-1.3-.3-.5-2.5-.5-2.5,0,0-.1,0-.2.2-.7.7-3,2.9-4.7,2.3-2.1-.8-1-3.4-.6-4.2.3-.7.7-1.3.7-1.3,0,0-.3,0-.5.1-.2,0-.5.1-.5.1,0,0-1,1.6-1.6,2.4-.6.8-3.1,3.5-4.6,3-1.5-.5-1.1-2.6-.3-4.3,1.4-2.7,4.6-6,6.5-5.5,2,.5.3,3.7.3,3.7,0,0,.4,0,1.3-.6.4-.3.8-.7,1.3-1.1,1.1-1,2.4-2.2,3.8-2,.9.1,1.7,1.1.6,2.8-.4.6-1,1.1-1.5.6-.3-.3,0-.9.3-1.3.1-.2.3-.3.5-.4.2,0,.4-.1.6-.1,0,0,.3-.7-.5-.7-.7,0-2.3,1.5-3.2,3.1-.8,1.4-2.1,3.8-.8,4.4,1.2.5,3.5-2.2,4.5-3.6,1.1-1.4,3.5-4.6,5.5-4.8.7,0,1.1.6,1.1.6l.2-.4h2s-3.8,6.3-4.1,6.8c-.2.4-.5,1.2.3.7.9-.5,2.6-2.8,2.6-2.8ZM44.5,11.1c.8-1.1,3.1-5,3.1-5,0,0,0-.1,0-.2s-.1,0-.2,0c-.3,0-.8,0-1.9,1.4-1,1.3-1.8,2.3-2.4,3.4-.6,1.2-.9,2-.6,2.2.1,0,.3,0,.4,0,.2,0,.6-.3,1-.8.2-.2.4-.5.7-.9h0ZM34.2,5.8c-.5-.4-1.9.5-1.9,1.5,0,1,1.2,1.3,1.4,1.3,0,0,0,0,.1,0,0,0,0,0,0,0,.1-.3.3-.6.4-.9.2-.5.4-1.4,0-1.8h0ZM33.4,9.2c-.4-.1-.7-.3-1-.5-.3-.2-.6-.5-.7-.8,0,0,0,0,0,0,0,0,0,0,0,0,0,0-.1.2-.8,1.2-.7,1.1-1.8,3.2-.8,3.6.6.2,1.7-.9,2.3-1.6.4-.6.8-1.2,1.2-1.8,0,0,0,0,0,0h0Z"/>
      <path class="cls-2" d="M47.9,20c-1.5-1-3.3-1.5-5.1-1.5-.5,0-1,.1-1.4.4-.4.2-.8.6-1.1,1-.8-1.3-2.3-2.2-4.6-2.1-2,0-4,.5-5.8,1-1.7.4-3.3.8-4.7.8-2.9,0-5-1.8-4.9-5,.1-5.6,4.9-10.6,8.4-12.9C30.8.3,32.5-.1,33.6,0c.8,0,1.8,1,1.2,2.4-.9,2-2.2,1.9-2.1.9,0-.3,0-.5.2-.7.1-.2.3-.4.5-.5.2-.1.5-.2.7-.2.2-.2.3-1.3-1.1-.9-1.5.4-3.2,1.8-4.9,3.6-1.7,1.8-4.3,5.3-4.9,9-.3,1.7-.1,4.8,3.9,4.8,1.6,0,3.4-.5,5.5-1,2.4-.6,5.1-1.3,7.6-1.3,1.6,0,3.2.4,4.6,1.3,1.2.7,2.6,1.8,3.1,2.6h0Z"/>
      <path class="cls-2" d="M11.3,12.7h4v-.9h-3v-1.1h1.9v-.9h-1.9v-1h2.8v-.9c.1,0-3.8,0-3.8,0v4.8Z"/>
      <path class="cls-2" d="M5.3,12.7h1v-2.1h2.5v2.1h1.1v-4.8h-1.1v1.8h-2.5v-1.8h-1v4.8Z"/>
      <path class="cls-2" d="M0,8.8h1.6v3.9h1.1v-3.9h1.6v-.9H0v.9Z"/>
      <path class="cls-2" d="M123.2,7.9h1.2l-1.9,3.2v1.6h-1.1v-1.6l-1.9-3.2h1.2l1.3,2.3,1.3-2.3Z"/>
      <path class="cls-2" d="M117.6,11.2v-3.3h1s0,4.8,0,4.8h-1.1l-2.3-3.3v3.3h-1v-4.8h1.1l2.3,3.3Z"/>
      <path class="cls-1" d="M113.3,12.7h-1.1l-.4-1.1h-2.1l-.4,1.1h-1.1l1.9-4.8h1.3l1.9,4.8ZM110.8,8.8l-.7,1.9h1.4s-.7-1.9-.7-1.9Z"/>
      <path class="cls-1" d="M104,7.9h2.5c.3,0,.6,0,.9.2.2.1.4.3.6.5.1.2.2.5.2.8s0,.5-.2.8c-.1.2-.3.4-.6.5-.3.1-.6.2-.9.2h-1.4v1.8h-1.1v-4.8ZM105.1,10h1.4c.2,0,.4,0,.5-.2.1-.1.2-.3.2-.4s0-.3-.2-.4c-.1-.1-.3-.2-.5-.2h-1.4v1.2Z"/>
      <path class="cls-2" d="M101.2,7.9h1.4v4.8s-1,0-1,0v-3.5l-1.5,3.5h-.7l-1.5-3.4v3.5h-1v-4.8h1.4l1.4,3.4,1.4-3.4Z"/>
      <path class="cls-2" d="M93.2,11.9s0,0,0,0h0s0,0,0,0Z"/>
      <path class="cls-1" d="M94.5,12.5c-.4.2-.9.3-1.3.3h0c-.5,0-.9-.1-1.3-.3-.4-.2-.7-.5-.9-.9-.2-.4-.3-.8-.3-1.3s.1-.9.3-1.3c.2-.4.5-.7.9-.9.4-.2.9-.3,1.3-.3s.9.1,1.3.3c.4.2.7.5.9.9.2.4.3.8.3,1.3s-.1.9-.3,1.3c-.2.4-.5.7-.9.9ZM92.4,11.7c.2.1.5.2.8.2.3,0,.5,0,.8-.2.2-.1.4-.3.5-.5.1-.2.2-.5.2-.8s0-.6-.2-.8c-.1-.2-.3-.4-.5-.6-.2-.1-.5-.2-.8-.2s-.5,0-.8.2c-.2.1-.4.3-.5.5-.1.2-.2.5-.2.8,0,.3,0,.6.2.8.1.2.3.4.5.6Z"/>
      <path class="cls-2" d="M89.2,12.6c-.4.1-.7.2-1.1.2h0c-.5,0-1,0-1.4-.3-.4-.2-.7-.5-1-.9-.2-.4-.4-.8-.4-1.3s.1-.9.4-1.3c.2-.4.6-.7,1-.9.4-.2.9-.3,1.4-.3.4,0,.8,0,1.1.2.3.1.6.3.8.6l-.7.7c-.2-.2-.4-.3-.6-.4-.2,0-.4-.1-.7-.1-.3,0-.6,0-.8.2-.2.1-.4.3-.6.6-.1.2-.2.5-.2.8,0,.3,0,.5.2.8.1.2.3.4.6.6.3.1.6.2.8.2.2,0,.5,0,.7-.1.2,0,.4-.2.6-.4l.7.7c-.2.3-.5.5-.8.6Z"/>
    </g>
  </g>
</svg>