<?xml version="1.0" encoding="UTF-8"?>
<svg xmlns="http://www.w3.org/2000/svg" version="1.1" viewBox="0 0 96 96">
  <defs>
    <style>
      .cls-1 {
        fill: #404040;
      }

      .cls-2 {
        fill: none;
        stroke: #404040;
        stroke-miterlimit: 10;
        stroke-width: 2px;
      }
    </style>
  </defs>
  <!-- Generator: Adobe Illustrator 28.7.1, SVG Export Plug-In . SVG Version: 1.2.0 Build 142)  -->
  <g>
    <g id="_레이어_1" data-name="레이어_1">
      <g>
        <path class="cls-1" d="M27.7,48.8c-.4-.2-.7-.5-.7-1,0-.4.2-.7.7-1h36.7c-2.3-1.7-4-3.7-5.3-6.1h0c-.8-1.5-1.3-3.1-1.6-4.6h0c0,0,0-.1,0-.2,0,0,0-.1,0-.1h0c0-.4.3-.5,1-.5h0c.4,0,.6,0,.7.1.1,0,.2.3.3.5h0c0,.6.3,1.3.5,2h0c.7,2.1,1.9,4.1,3.5,5.7,1.6,1.7,3.5,2.9,5.7,3.6h0c.3,0,.4.3.4.5s-.1.4-.4.5h0c-2.2.7-4.1,1.9-5.7,3.6-1.6,1.7-2.8,3.6-3.5,5.7h0c-.2.7-.4,1.3-.5,1.9h0c0,.3-.2.5-.3.6-.1,0-.4.1-.7.1h0c-.7,0-1-.2-1-.5h0c0,0,0-.5.3-1.2h0c1-4,3.2-7.3,6.7-9.8H27.7Z"/>
        <circle class="cls-2" cx="48.3" cy="47.8" r="36"/>
      </g>
    </g>
  </g>
</svg>